<svg width="80" height="80" viewBox="0 0 80 80" fill="none" xmlns="http://www.w3.org/2000/svg">
<g clip-path="url(#clip0_343_2811)">
<path d="M5 40C5 49.2826 8.68749 58.185 15.2513 64.7487C21.815 71.3125 30.7174 75 40 75C49.2826 75 58.185 71.3125 64.7487 64.7487C71.3125 58.185 75 49.2826 75 40C75 30.7174 71.3125 21.815 64.7487 15.2513C58.185 8.68749 49.2826 5 40 5C30.7174 5 21.815 8.68749 15.2513 15.2513C8.68749 21.815 5 30.7174 5 40ZM80 40C80 50.6087 75.7857 60.7828 68.2843 68.2843C60.7828 75.7857 50.6087 80 40 80C29.3913 80 19.2172 75.7857 11.7157 68.2843C4.21427 60.7828 0 50.6087 0 40C0 29.3913 4.21427 19.2172 11.7157 11.7157C19.2172 4.21427 29.3913 0 40 0C50.6087 0 60.7828 4.21427 68.2843 11.7157C75.7857 19.2172 80 29.3913 80 40ZM33.23 31.2V31.55H26.875V31.23C26.875 25.165 31.27 19.22 40.06 19.22C47.97 19.22 53.125 23.965 53.125 30.295C53.125 35.305 50.125 38.63 46.69 42.445L46.21 42.98L36.34 54.08V54.465H53.83V60H27.11V55.84L41.96 39.375C44.13 37 46.475 34.335 46.475 30.85C46.475 27.13 43.69 24.67 39.91 24.67C35.695 24.67 33.23 27.745 33.23 31.2Z" fill="#FF6501"/>
</g>
<defs>
<clipPath id="clip0_343_2811">
<rect width="80" height="80" fill="white"/>
</clipPath>
</defs>
</svg>
