<svg width="80" height="80" viewBox="0 0 80 80" fill="none" xmlns="http://www.w3.org/2000/svg">
<g clip-path="url(#clip0_343_2817)">
<path d="M39.59 42.07H35.195V36.71H39.385C43.285 36.71 46.125 34.1 46.095 30.525C46.095 26.98 43.28 24.55 39.355 24.55C35.405 24.55 32.795 27.04 32.615 29.825H26.375C26.555 24.14 31.125 19.25 39.5 19.22C47.47 19.16 52.54 23.645 52.685 29.53C52.8 35.215 48.26 38.41 45.275 38.905V39.255C48.79 39.605 53.825 42.455 53.945 48.84C54.065 56.135 47.56 60.82 39.295 60.82C30.77 60.82 25.76 55.985 25.525 50.1H31.65C31.945 53.085 35.05 55.4 39.355 55.43C44.22 55.46 47.355 52.615 47.295 48.66C47.265 44.765 44.19 42.07 39.59 42.07Z" fill="#FF6501"/>
<path d="M80 40C80 50.6087 75.7857 60.7828 68.2843 68.2843C60.7828 75.7857 50.6087 80 40 80C29.3913 80 19.2172 75.7857 11.7157 68.2843C4.21427 60.7828 0 50.6087 0 40C0 29.3913 4.21427 19.2172 11.7157 11.7157C19.2172 4.21427 29.3913 0 40 0C50.6087 0 60.7828 4.21427 68.2843 11.7157C75.7857 19.2172 80 29.3913 80 40ZM5 40C5 49.2826 8.68749 58.185 15.2513 64.7487C21.815 71.3125 30.7174 75 40 75C49.2826 75 58.185 71.3125 64.7487 64.7487C71.3125 58.185 75 49.2826 75 40C75 30.7174 71.3125 21.815 64.7487 15.2513C58.185 8.68749 49.2826 5 40 5C30.7174 5 21.815 8.68749 15.2513 15.2513C8.68749 21.815 5 30.7174 5 40Z" fill="#FF6501"/>
</g>
<defs>
<clipPath id="clip0_343_2817">
<rect width="80" height="80" fill="white"/>
</clipPath>
</defs>
</svg>
