<svg width="72" height="72" viewBox="0 0 72 72" fill="none" xmlns="http://www.w3.org/2000/svg">
<path d="M39.61 18H32.41V32.4H18.01V39.6H32.41V54H39.61V39.6H54.01V32.4H39.61V18ZM36.01 0C16.174 0 0.0100098 16.164 0.0100098 36C0.0100098 55.836 16.174 72 36.01 72H64.81C68.77 72 72.01 68.76 72.01 64.8V36C72.01 16.164 55.846 0 36.01 0ZM36.01 64.8C20.134 64.8 7.21001 51.876 7.21001 36C7.21001 20.124 20.134 7.2 36.01 7.2C51.886 7.2 64.81 20.124 64.81 36C64.81 51.876 51.886 64.8 36.01 64.8Z" fill="#0C4D3F"/>
</svg>
