<svg width="72" height="72" viewBox="0 0 72 72" fill="none" xmlns="http://www.w3.org/2000/svg">
<path d="M36 32.4H32.4V39.6L36 36V39.6H39.6L36 36V32.4ZM36 0C16.164 0 0 16.164 0 36C0 55.836 16.164 72 36 72H64.8C68.76 72 72 68.76 72 64.8V36C72 16.164 55.836 0 36 0ZM36 64.8C20.124 64.8 7.2 51.876 7.2 36C7.2 20.124 20.124 7.2 36 7.2C51.876 7.2 64.8 20.124 64.8 36C64.8 51.876 51.876 64.8 36 64.8Z" fill="#0C4D3F"/>
<g clip-path="url(#clip0_654_1853)">
<path d="M50.7 32.7188C50.7 42.5625 36.1045 50.5303 35.483 50.8594C35.3191 50.9475 35.136 50.9936 34.95 50.9936C34.764 50.9936 34.5809 50.9475 34.417 50.8594C33.7955 50.5303 19.2 42.5625 19.2 32.7188C19.2026 30.4072 20.122 28.1911 21.7565 26.5565C23.3911 24.922 25.6072 24.0026 27.9187 24C30.8227 24 33.3652 25.2488 34.95 27.3595C36.5348 25.2488 39.0773 24 41.9812 24C44.2928 24.0026 46.5089 24.922 48.1435 26.5565C49.778 28.1911 50.6974 30.4072 50.7 32.7188Z" fill="#0C4D3F"/>
</g>
<defs>
<clipPath id="clip0_654_1853">
<rect width="36" height="36" fill="white" transform="translate(19.2 19.2)"/>
</clipPath>
</defs>
</svg>
