<svg width="25" height="24" viewBox="0 0 25 24" fill="none" xmlns="http://www.w3.org/2000/svg">
<path d="M23.8515 21.9504C23.963 22.0619 24.0514 22.1943 24.1117 22.3399C24.1721 22.4856 24.2031 22.6417 24.2031 22.7994C24.2031 22.9571 24.1721 23.1132 24.1117 23.2588C24.0514 23.4045 23.963 23.5369 23.8515 23.6484C23.74 23.7598 23.6076 23.8483 23.462 23.9086C23.3163 23.9689 23.1602 24 23.0025 24C22.8449 24 22.6887 23.9689 22.5431 23.9086C22.3974 23.8483 22.2651 23.7598 22.1536 23.6484L12.2031 13.6964L2.25268 23.6484C2.02752 23.8735 1.72214 24 1.40373 24C1.08531 24 0.779929 23.8735 0.554773 23.6484C0.329616 23.4232 0.203125 23.1178 0.203125 22.7994C0.203125 22.481 0.329616 22.1756 0.554773 21.9504L10.5067 12L0.554773 2.04955C0.329616 1.8244 0.203125 1.51902 0.203125 1.2006C0.203125 0.882181 0.329616 0.576804 0.554773 0.351648C0.779929 0.126491 1.08531 2.37241e-09 1.40373 0C1.72214 -2.37241e-09 2.02752 0.126491 2.25268 0.351648L12.2031 10.3036L22.1536 0.351648C22.3787 0.126491 22.6841 -6.2768e-09 23.0025 0C23.3209 6.2768e-09 23.6263 0.126491 23.8515 0.351648C24.0766 0.576804 24.2031 0.882181 24.2031 1.2006C24.2031 1.51902 24.0766 1.8244 23.8515 2.04955L13.8995 12L23.8515 21.9504Z" fill="#353E5C"/>
</svg>
