<svg width="24" height="25" viewBox="0 0 24 25" fill="none" xmlns="http://www.w3.org/2000/svg">
<rect y="0.61377" width="24" height="24" rx="4" fill="#0C4D3F"/>
<path fill-rule="evenodd" clip-rule="evenodd" d="M6 12.6138C6 10.217 6 9.01863 6.57113 8.15547C6.82616 7.77003 7.15626 7.43993 7.5417 7.1849C8.40486 6.61377 9.60324 6.61377 12 6.61377C14.3968 6.61377 15.5951 6.61377 16.4583 7.1849C16.8437 7.43993 17.1738 7.77003 17.4289 8.15547C18 9.01863 18 10.217 18 12.6138C18 15.0105 18 16.2089 17.4289 17.0721C17.1738 17.4575 16.8437 17.7876 16.4583 18.0426C15.5951 18.6138 14.3968 18.6138 12 18.6138C9.60324 18.6138 8.40486 18.6138 7.5417 18.0426C7.15626 17.7876 6.82616 17.4575 6.57113 17.0721C6 16.2089 6 15.0105 6 12.6138ZM15.1062 12.6139C15.1062 14.3295 13.7154 15.7202 11.9999 15.7202C10.2843 15.7202 8.89362 14.3295 8.89362 12.6139C8.89362 10.8984 10.2843 9.50765 11.9999 9.50765C13.7154 9.50765 15.1062 10.8984 15.1062 12.6139ZM11.9999 14.6693C13.135 14.6693 14.0552 13.7491 14.0552 12.6139C14.0552 11.4788 13.135 10.5586 11.9999 10.5586C10.8648 10.5586 9.94456 11.4788 9.94456 12.6139C9.94456 13.7491 10.8648 14.6693 11.9999 14.6693ZM15.2288 10.0815C15.632 10.0815 15.9587 9.75469 15.9587 9.35159C15.9587 8.94848 15.632 8.6217 15.2288 8.6217C14.8257 8.6217 14.499 8.94848 14.499 9.35159C14.499 9.75469 14.8257 10.0815 15.2288 10.0815Z" fill="white"/>
</svg>
