<svg width="23" height="22" viewBox="0 0 23 22" fill="none" xmlns="http://www.w3.org/2000/svg">
<path d="M6 20.0001H10C10 21.1001 9.1 22.0001 8 22.0001C6.9 22.0001 6 21.1001 6 20.0001ZM4 19.0001H12V17.0001H4V19.0001ZM15.5 9.50006C15.5 13.3201 12.84 15.3601 11.73 16.0001H4.27C3.16 15.3601 0.5 13.3201 0.5 9.50006C0.5 5.36006 3.86 2.00006 8 2.00006C12.14 2.00006 15.5 5.36006 15.5 9.50006ZM20.37 7.37006L19 8.00006L20.37 8.63006L21 10.0001L21.63 8.63006L23 8.00006L21.63 7.37006L21 6.00006L20.37 7.37006ZM18 6.00006L18.94 3.94006L21 3.00006L18.94 2.06006L18 6.10352e-05L17.06 2.06006L15 3.00006L17.06 3.94006L18 6.00006Z" fill="white"/>
</svg>
