<svg width="24" height="25" viewBox="0 0 24 25" fill="none" xmlns="http://www.w3.org/2000/svg">
<rect y="0.61377" width="24" height="24" rx="4" fill="#0C4D3F"/>
<path d="M6 8.2271C6 7.84229 6.13514 7.52483 6.40541 7.27472C6.67567 7.02459 7.02703 6.89954 7.45946 6.89954C7.88417 6.89954 8.2278 7.02266 8.49035 7.26894C8.76061 7.52291 8.89575 7.85383 8.89575 8.26173C8.89575 8.63114 8.76448 8.93897 8.50193 9.18525C8.23166 9.43922 7.87645 9.5662 7.43629 9.5662H7.42471C7 9.5662 6.65637 9.43922 6.39382 9.18525C6.13127 8.93128 6 8.61189 6 8.2271ZM6.15058 18.3281V10.6167H8.72201V18.3281H6.15058ZM10.1467 18.3281H12.7181V14.0222C12.7181 13.7528 12.749 13.545 12.8108 13.3988C12.9189 13.1371 13.083 12.9159 13.3031 12.735C13.5232 12.5542 13.7992 12.4637 14.1313 12.4637C14.9961 12.4637 15.4286 13.0448 15.4286 14.2069V18.3281H18V13.9067C18 12.7677 17.7297 11.9039 17.1892 11.3151C16.6486 10.7264 15.9344 10.432 15.0463 10.432C14.0502 10.432 13.2741 10.8591 12.7181 11.7134V11.7365H12.7066L12.7181 11.7134V10.6167H10.1467C10.1622 10.863 10.1699 11.6287 10.1699 12.914C10.1699 14.1992 10.1622 16.0039 10.1467 18.3281Z" fill="white"/>
</svg>
