<svg width="20" height="20" viewBox="0 0 20 20" fill="none" xmlns="http://www.w3.org/2000/svg">
<path d="M10.0098 1.5C8.6008 1.5 7.24955 2.05971 6.25326 3.056C5.25697 4.05228 4.69727 5.40354 4.69727 6.8125C4.73329 7.79607 5.0106 8.7557 5.50477 9.60688C5.968 10.4162 6.52428 11.1686 7.16227 11.8488C7.66794 12.4188 8.20724 12.9581 8.77727 13.4637L9.31914 13.9206L9.46789 14.0375H9.53164C9.67367 14.1307 9.83987 14.1804 10.0098 14.1804C10.1797 14.1804 10.3459 14.1307 10.4879 14.0375H10.5516L10.711 13.9206L11.2423 13.4637C11.8161 12.9585 12.3589 12.4192 12.8679 11.8488C13.5026 11.1466 14.0584 10.377 14.5254 9.55375C15.0084 8.7177 15.2818 7.77717 15.3223 6.8125C15.3223 6.11485 15.1849 5.42404 14.9179 4.77949C14.6509 4.13495 14.2596 3.54931 13.7663 3.056C13.273 2.56268 12.6873 2.17137 12.0428 1.90439C11.3982 1.63741 10.7074 1.5 10.0098 1.5Z" fill="white"/>
<path fill-rule="evenodd" clip-rule="evenodd" d="M9.26571 6.05814C9.46361 5.86185 9.73073 5.75119 10.0095 5.75002C10.1493 5.74921 10.2879 5.77601 10.4174 5.82889C10.5468 5.88176 10.6646 5.95967 10.7638 6.05814C10.8634 6.15692 10.9425 6.27443 10.9964 6.4039C11.0504 6.53338 11.0781 6.67226 11.0781 6.81252C11.0781 6.95278 11.0504 7.09166 10.9964 7.22113C10.9425 7.35061 10.8634 7.46812 10.7638 7.56689C10.6646 7.66537 10.5468 7.74327 10.4174 7.79615C10.2879 7.84902 10.1493 7.87583 10.0095 7.87502C9.79933 7.87414 9.59417 7.81097 9.41994 7.69349C9.24571 7.57602 9.11022 7.40952 9.03061 7.21505C8.95101 7.02058 8.93085 6.80687 8.9727 6.60094C9.01454 6.39501 9.11651 6.20612 9.26571 6.05814Z" fill="#0C4D3F"/>
<path d="M16.4375 18.5H3.58128C3.30683 18.4983 3.03562 18.4405 2.78441 18.33C2.53761 18.2127 2.31989 18.0421 2.14691 17.8306C1.969 17.624 1.83871 17.3808 1.76527 17.1182C1.69182 16.8556 1.67702 16.5801 1.72191 16.3112L2.58253 11.7212C2.62143 11.511 2.74105 11.3244 2.91579 11.2013C3.09053 11.0782 3.30651 11.0283 3.51753 11.0625C3.72295 11.1037 3.9043 11.2232 4.02325 11.3957C4.14221 11.5682 4.18946 11.7802 4.15503 11.9868L3.31566 16.5875C3.30983 16.6262 3.30983 16.6656 3.31566 16.7043C3.32678 16.7427 3.34478 16.7787 3.36878 16.8106C3.39357 16.8433 3.42655 16.869 3.46441 16.885H3.57066H16.4269H16.5438C16.5768 16.866 16.6057 16.8408 16.6288 16.8106C16.6596 16.7819 16.6817 16.7451 16.6925 16.7043C16.7032 16.6697 16.7032 16.6327 16.6925 16.5981L15.8532 11.9975C15.835 11.8942 15.8374 11.7884 15.8601 11.6861C15.8829 11.5837 15.9256 11.4869 15.9858 11.401C16.046 11.3152 16.1225 11.2421 16.2109 11.1858C16.2994 11.1295 16.398 11.0912 16.5013 11.0731C16.6045 11.0549 16.7103 11.0573 16.8127 11.0801C16.915 11.1028 17.0119 11.1455 17.0977 11.2057C17.2711 11.3272 17.389 11.5127 17.4257 11.7212L18.265 16.3112C18.3166 16.5779 18.3166 16.852 18.265 17.1187C18.1908 17.3788 18.0643 17.6211 17.8932 17.8306C17.7203 18.0395 17.5023 18.2066 17.2557 18.3193C16.9998 18.4396 16.7203 18.5013 16.4375 18.5Z" fill="white"/>
</svg>
