<svg width="18" height="18" viewBox="0 0 18 18" fill="none" xmlns="http://www.w3.org/2000/svg">
<path d="M9.00977 0.5C7.6008 0.5 6.24955 1.05971 5.25326 2.056C4.25697 3.05228 3.69727 4.40354 3.69727 5.8125C3.73329 6.79607 4.0106 7.7557 4.50477 8.60688C4.968 9.41621 5.52428 10.1686 6.16227 10.8488C6.66794 11.4188 7.20724 11.9581 7.77727 12.4637L8.31914 12.9206L8.46789 13.0375H8.53164C8.67367 13.1307 8.83987 13.1804 9.00977 13.1804C9.17967 13.1804 9.34586 13.1307 9.48789 13.0375H9.55164L9.71102 12.9206L10.2423 12.4637C10.8161 11.9585 11.3589 11.4192 11.8679 10.8488C12.5026 10.1466 13.0584 9.37702 13.5254 8.55375C14.0084 7.7177 14.2818 6.77717 14.3223 5.8125C14.3223 5.11485 14.1849 4.42404 13.9179 3.77949C13.6509 3.13495 13.2596 2.54931 12.7663 2.056C12.273 1.56268 11.6873 1.17137 11.0428 0.90439C10.3982 0.637412 9.70741 0.5 9.00977 0.5Z" fill="#0C4D3F"/>
<path fill-rule="evenodd" clip-rule="evenodd" d="M8.26571 5.05814C8.46361 4.86185 8.73073 4.75119 9.00946 4.75002C9.14929 4.74921 9.28791 4.77601 9.41736 4.82889C9.54681 4.88176 9.66456 4.95967 9.76384 5.05814C9.86342 5.15692 9.94247 5.27443 9.99641 5.4039C10.0504 5.53338 10.0781 5.67226 10.0781 5.81252C10.0781 5.95278 10.0504 6.09166 9.99641 6.22113C9.94247 6.35061 9.86342 6.46812 9.76384 6.56689C9.66456 6.66537 9.54681 6.74327 9.41736 6.79615C9.28791 6.84902 9.14929 6.87583 9.00946 6.87502C8.79933 6.87414 8.59417 6.81097 8.41994 6.69349C8.24571 6.57602 8.11022 6.40952 8.03061 6.21505C7.95101 6.02058 7.93085 5.80687 7.9727 5.60094C8.01454 5.39501 8.11651 5.20612 8.26571 5.05814Z" fill="white"/>
<path d="M15.4375 17.5H2.58128C2.30683 17.4984 2.03562 17.4405 1.78441 17.33C1.53761 17.2127 1.31989 17.0421 1.14691 16.8306C0.969002 16.624 0.838712 16.3808 0.765267 16.1182C0.691822 15.8557 0.677018 15.5802 0.721906 15.3112L1.58253 10.7212C1.62143 10.5111 1.74105 10.3244 1.91579 10.2013C2.09053 10.0782 2.30651 10.0284 2.51753 10.0625C2.72295 10.1037 2.9043 10.2232 3.02325 10.3957C3.14221 10.5682 3.18946 10.7802 3.15503 10.9869L2.31566 15.5875C2.30983 15.6262 2.30983 15.6656 2.31566 15.7044C2.32678 15.7427 2.34478 15.7787 2.36878 15.8106C2.39357 15.8434 2.42655 15.869 2.46441 15.885H2.57066H15.4269H15.5438C15.5768 15.8661 15.6057 15.8408 15.6288 15.8106C15.6596 15.7819 15.6817 15.7451 15.6925 15.7044C15.7032 15.6697 15.7032 15.6327 15.6925 15.5981L14.8532 10.9975C14.835 10.8942 14.8374 10.7884 14.8601 10.6861C14.8829 10.5838 14.9256 10.4869 14.9858 10.4011C15.046 10.3152 15.1225 10.2421 15.2109 10.1858C15.2994 10.1295 15.398 10.0913 15.5013 10.0731C15.6045 10.055 15.7103 10.0573 15.8127 10.0801C15.915 10.1029 16.0119 10.1455 16.0977 10.2057C16.2711 10.3273 16.389 10.5127 16.4257 10.7212L17.265 15.3112C17.3166 15.5779 17.3166 15.852 17.265 16.1187C17.1908 16.3789 17.0643 16.6211 16.8932 16.8306C16.7203 17.0396 16.5023 17.2067 16.2557 17.3194C15.9998 17.4396 15.7203 17.5013 15.4375 17.5Z" fill="#0C4D3F"/>
</svg>
