<svg width="24" height="25" viewBox="0 0 24 25" fill="none" xmlns="http://www.w3.org/2000/svg">
<rect y="0.61377" width="24" height="24" rx="4" fill="#0C4D3F"/>
<path d="M14.018 7.74801V7.74585H14.5807L14.7863 7.78691C14.9234 7.81357 15.0478 7.8485 15.1596 7.89173C15.2714 7.93495 15.3796 7.98538 15.4842 8.043C15.5888 8.10063 15.6837 8.15935 15.7688 8.21914C15.8532 8.27821 15.929 8.34088 15.996 8.40715C16.0624 8.47415 16.1659 8.49144 16.3066 8.45902C16.4473 8.4266 16.5987 8.38158 16.761 8.32395C16.9234 8.26632 17.0839 8.20149 17.2426 8.12945C17.4013 8.05741 17.4979 8.01167 17.5326 7.99222C17.5665 7.97205 17.5845 7.96125 17.5867 7.9598L17.5888 7.95656L17.5996 7.95116L17.6105 7.94575L17.6213 7.94035L17.6321 7.93495L17.6343 7.93171L17.6375 7.92954L17.6408 7.92738L17.6429 7.92414L17.6537 7.9209L17.6646 7.91874L17.6624 7.93495L17.6592 7.95116L17.6537 7.96736L17.6483 7.98357L17.6429 7.99438L17.6375 8.00518L17.6321 8.02139C17.6285 8.0322 17.6249 8.0466 17.6213 8.06461C17.6177 8.08263 17.5834 8.15466 17.5185 8.28073C17.4536 8.4068 17.3724 8.53466 17.275 8.66433C17.1776 8.79399 17.0904 8.89196 17.0132 8.95824C16.9353 9.02523 16.8837 9.07205 16.8584 9.09871C16.8332 9.12608 16.8025 9.15129 16.7665 9.17435L16.7124 9.21001L16.7015 9.21541L16.6907 9.22081L16.6886 9.22406L16.6853 9.22622L16.6821 9.22838L16.6799 9.23162L16.6691 9.23702L16.6583 9.24243L16.6561 9.24567L16.6528 9.24783L16.6496 9.24999L16.6474 9.25323L16.6453 9.25647L16.642 9.25863L16.6388 9.2608L16.6366 9.26404H16.6907L16.9937 9.1992C17.1957 9.15598 17.3886 9.10376 17.5726 9.04252L17.8647 8.94527L17.8972 8.93447L17.9134 8.92906L17.9243 8.92366L17.9351 8.91826L17.9459 8.91285L17.9567 8.90745L17.9784 8.90421L18 8.90205V8.92366L17.9946 8.92582L17.9892 8.92906L17.987 8.93231L17.9838 8.93447L17.9805 8.93663L17.9784 8.93987L17.9762 8.94311L17.9729 8.94527L17.9697 8.94743L17.9675 8.95067L17.9654 8.95392L17.9621 8.95608L17.9567 8.96688L17.9513 8.97769L17.9481 8.97985C17.9466 8.98201 17.9008 9.04324 17.8106 9.16354C17.7205 9.28457 17.6718 9.34579 17.6646 9.34724C17.6574 9.3494 17.6472 9.36021 17.6343 9.37966C17.622 9.39982 17.5455 9.48015 17.4049 9.62062C17.2642 9.7611 17.1264 9.88607 16.9915 9.99558C16.8559 10.1058 16.7874 10.2412 16.7859 10.4019C16.7838 10.5618 16.7755 10.7426 16.761 10.9443C16.7466 11.146 16.7196 11.3639 16.6799 11.598C16.6402 11.8322 16.5789 12.0969 16.4959 12.3923C16.413 12.6876 16.312 12.9758 16.193 13.2567C16.0739 13.5377 15.9495 13.7898 15.8197 14.0131C15.6898 14.2364 15.5708 14.4255 15.4626 14.5804C15.3544 14.7353 15.2444 14.8811 15.1326 15.018C15.0207 15.1549 14.8794 15.3091 14.7084 15.4805C14.5367 15.6512 14.4429 15.7449 14.4271 15.7614C14.4105 15.7773 14.3398 15.8364 14.215 15.9387C14.0909 16.0417 13.9574 16.1447 13.8146 16.2477C13.6725 16.35 13.5419 16.4354 13.4229 16.5038C13.3039 16.5722 13.1603 16.6504 12.9922 16.7383C12.8249 16.8269 12.6438 16.909 12.4491 16.9846C12.2543 17.0603 12.0487 17.1305 11.8323 17.1954C11.6159 17.2602 11.4067 17.3106 11.2047 17.3466C11.0027 17.3826 10.7737 17.4133 10.5176 17.4385L10.1335 17.4763V17.4817H9.43012V17.4763L9.33814 17.4709C9.27683 17.4673 9.22633 17.4637 9.18665 17.4601C9.14699 17.4565 8.99729 17.4367 8.7376 17.4007C8.47791 17.3646 8.27412 17.3286 8.12624 17.2926C7.97837 17.2566 7.75834 17.1881 7.46619 17.0873C7.17403 16.9864 6.92408 16.8845 6.71632 16.7815C6.50929 16.6792 6.37944 16.6144 6.32678 16.587C6.27484 16.5603 6.21641 16.5272 6.15149 16.4876L6.0541 16.4282L6.05195 16.4249L6.04869 16.4228L6.04545 16.4206L6.04328 16.4173L6.03246 16.4119L6.02164 16.4065L6.01949 16.4033L6.01623 16.4011L6.01298 16.399L6.01082 16.3957L6.00867 16.3925L6.00541 16.3903H6V16.3687L6.01082 16.3709L6.02164 16.3741L6.07033 16.3795C6.1028 16.3831 6.19117 16.3885 6.33544 16.3957C6.47972 16.4029 6.633 16.4029 6.79531 16.3957C6.95762 16.3885 7.12354 16.3723 7.29306 16.3471C7.46258 16.3219 7.66276 16.2787 7.8936 16.2174C8.12444 16.1562 8.33653 16.0835 8.52986 15.9992C8.72246 15.9142 8.85952 15.8508 8.94104 15.809C9.02183 15.7679 9.14518 15.6916 9.31109 15.5799L9.55996 15.4124L9.56213 15.4092L9.56537 15.407L9.56863 15.4049L9.57078 15.4016L9.57295 15.3984L9.57619 15.3962L9.57945 15.3941L9.58161 15.3908L9.59243 15.3876L9.60325 15.3854L9.60541 15.3746L9.60866 15.3638L9.61191 15.3616L9.61407 15.3584L9.5275 15.353C9.4698 15.3494 9.41389 15.3458 9.35978 15.3422C9.30568 15.3386 9.22092 15.3224 9.1055 15.2936C8.99009 15.2647 8.86565 15.2215 8.73219 15.1639C8.59874 15.1063 8.46889 15.0378 8.34265 14.9586C8.21642 14.8794 8.12516 14.8134 8.06889 14.7608C8.01335 14.709 7.94121 14.6355 7.85248 14.5404C7.76448 14.4446 7.68801 14.3463 7.62308 14.2454C7.55816 14.1446 7.49613 14.0282 7.43698 13.8964L7.34716 13.6997L7.34175 13.6835L7.33634 13.6673L7.33309 13.6565L7.33093 13.6457L7.34716 13.6479L7.36339 13.6511L7.48242 13.6673C7.56177 13.6781 7.68621 13.6817 7.85573 13.6781C8.02525 13.6745 8.14247 13.6673 8.20739 13.6565C8.27232 13.6457 8.312 13.6385 8.32642 13.6349L8.34806 13.6295L8.37511 13.6241L8.40216 13.6187L8.40433 13.6155L8.40757 13.6133L8.41083 13.6111L8.41298 13.6079L8.39134 13.6025L8.3697 13.5971L8.34806 13.5917L8.32642 13.5863L8.30478 13.5809C8.29036 13.5773 8.26511 13.5701 8.22904 13.5593C8.19297 13.5485 8.09559 13.5088 7.93688 13.4404C7.77819 13.372 7.65194 13.3053 7.55816 13.2405C7.46415 13.1755 7.3745 13.1044 7.28981 13.0276C7.20541 12.9498 7.11272 12.8497 7.01172 12.7272C6.91073 12.6048 6.82057 12.4625 6.74121 12.3004C6.66186 12.1383 6.60235 11.9835 6.56267 11.8358C6.52315 11.689 6.49708 11.5389 6.48477 11.3873L6.46528 11.1604L6.4761 11.1626L6.48693 11.1658L6.49775 11.1712L6.50857 11.1766L6.51939 11.182L6.53021 11.1874L6.69793 11.2631C6.80975 11.3135 6.94861 11.3567 7.11452 11.3927C7.28044 11.4288 7.37962 11.4486 7.41208 11.4522L7.46078 11.4576H7.55816L7.55601 11.4543L7.55275 11.4522L7.5495 11.45L7.54734 11.4468L7.54519 11.4435L7.54193 11.4414L7.53868 11.4392L7.53652 11.436L7.5257 11.4306L7.51488 11.4252L7.51272 11.4219L7.50947 11.4198L7.50622 11.4176L7.50406 11.4144L7.49324 11.4089L7.48242 11.4035L7.48026 11.4003C7.4781 11.3989 7.44708 11.3758 7.3872 11.3311C7.32804 11.2858 7.26601 11.2271 7.20108 11.155C7.13616 11.083 7.07124 11.0073 7.00631 10.9281C6.94127 10.8487 6.88334 10.7637 6.83318 10.6742C6.78269 10.5841 6.72931 10.4696 6.67304 10.3306C6.6175 10.1922 6.5753 10.0528 6.54644 9.91237C6.51759 9.7719 6.50136 9.63323 6.49775 9.49636C6.49414 9.35948 6.49775 9.24243 6.50857 9.14518C6.51939 9.04792 6.54103 8.93806 6.57349 8.8156C6.60595 8.69314 6.65285 8.56348 6.71416 8.4266L6.80613 8.2213L6.81154 8.20509L6.81695 8.18888L6.82021 8.18672L6.82236 8.18348L6.82453 8.18023L6.82777 8.17807L6.83103 8.18023L6.83318 8.18348L6.83535 8.18672L6.83859 8.18888L6.84185 8.19104L6.844 8.19428L6.84617 8.19752L6.84941 8.19969L6.85482 8.21049L6.86023 8.2213L6.86349 8.22346L6.86564 8.2267L7.01172 8.38878C7.10911 8.49684 7.22453 8.61751 7.35798 8.75077C7.49144 8.88404 7.56538 8.95319 7.5798 8.95824C7.59424 8.964 7.61226 8.98056 7.6339 9.00794C7.65555 9.0346 7.72769 9.09835 7.85032 9.1992C7.97296 9.30005 8.13346 9.41712 8.33183 9.55039C8.53021 9.68365 8.75023 9.81512 8.99188 9.94479C9.23355 10.0745 9.49324 10.1915 9.77096 10.296C10.0487 10.4004 10.2435 10.4689 10.3553 10.5013C10.4671 10.5337 10.6583 10.5751 10.9288 10.6255C11.1993 10.676 11.4031 10.7084 11.5401 10.7228C11.6772 10.7372 11.771 10.7455 11.8215 10.7476L11.8972 10.7498L11.8951 10.7336L11.8918 10.7174L11.8702 10.5823C11.8557 10.4923 11.8485 10.3662 11.8485 10.2041C11.8485 10.042 11.8611 9.89257 11.8864 9.75569C11.9116 9.61882 11.9495 9.48015 12 9.33968C12.0505 9.1992 12.0999 9.08646 12.1482 9.00146C12.1973 8.91718 12.2615 8.82101 12.3408 8.71295C12.4202 8.6049 12.523 8.49324 12.6492 8.37798C12.7755 8.26271 12.9197 8.16006 13.0821 8.07002C13.2444 7.97997 13.3941 7.91153 13.5311 7.86471C13.6682 7.81789 13.7836 7.78727 13.8774 7.77286C13.9711 7.75846 14.018 7.75017 14.018 7.74801Z" fill="white"/>
</svg>
